<?xml version="1.0" encoding="UTF-8"?>
<!-- Generated by Pixelmator Pro 3.3.6 -->
<svg width="144" height="144" viewBox="0 0 144 144" xmlns="http://www.w3.org/2000/svg">
    <path id="Ellipse" fill="#ffffff" fill-rule="evenodd" stroke="none" d="M 134 72.5 C 134 37.982201 106.017799 10 71.5 10 C 36.982201 10 9 37.982201 9 72.5 C 9 107.017799 36.982201 135 71.5 135 C 106.017799 135 134 107.017799 134 72.5 Z"/>
    <path id="L" fill="#000000" fill-rule="evenodd" stroke="none" d="M 53.593033 33.759796 L 73.937042 33.759796 L 73.937042 86.755043 L 94.005943 86.755043 L 94.005943 104.06842 L 53.593033 104.06842 Z"/>
    <path id="path1" fill="none" stroke="#000000" stroke-width="22" d="M 133 72 C 133 38.310631 105.689369 11 72 11 C 38.310631 11 11 38.310631 11 72 C 11 105.689369 38.310631 133 72 133 C 105.689369 133 133 105.689369 133 72 Z"/>
</svg>
