<svg version="1.1" viewBox="0 0 123.53 28.41" xmlns="http://www.w3.org/2000/svg">
  <g id="Symbols" stroke="none" stroke-width="1" fill="none" fill-rule="evenodd">
      <g id="D-/-Elements/Lamy_Logo_Black" fill="#000000" fill-rule="nonzero">
          <g id="D/Elements/Lamy_Logo_Black">
              <path d="M11.4457831,0.200803213 L21.6064257,0.200803213 L13.6345382,19.9799197 C13.4136546,20.5220884 13.313253,20.7028112 12.9518072,21.2048193 L13.0522088,21.3453815 C13.5943775,21.3052209 13.7349398,21.2449799 13.9156627,21.2449799 L19.37751,21.2449799 C19.7791165,20.4618474 19.9196787,20.2811245 20.3413655,19.5983936 L32.811245,0.200803213 L44.437751,0.200803213 L46.4457831,19.939759 L46.5863454,22.1686747 L46.686747,23.1325301 L47.0481928,23.1325301 C47.4497992,21.4859438 47.6907631,20.8032129 48.0923695,19.7188755 L55.8433735,0.200803213 L70.060241,0.200803213 L68.875502,12.5502008 L68.7751004,13.8353414 L68.6345382,15.3413655 L68.9558233,15.3815261 C69.7791165,13.875502 70.1405622,13.2931727 70.6425703,12.4698795 L78.6746988,0.200803213 L100.64257,0.200803213 L102.429719,7.85140562 C102.610442,8.57429719 102.710843,8.99598394 102.791165,9.93975904 L103.012048,9.93975904 C103.654618,8.97590361 103.875502,8.65461847 104.698795,7.75100402 L111.726908,0.180722892 L123.534137,0.180722892 L105.080321,18.313253 L100.983936,28.5742972 L91.3253012,28.5742972 L96.0843373,16.4658635 L93.7148594,6.94779116 C93.5742972,6.30522088 93.4939759,5.90361446 93.3534137,4.7188755 L93.1726908,4.75903614 L92.2690763,7.30923695 L91.4859438,9.39759036 L83.7751004,28.5943775 L74.4779116,28.5943775 L80.8634538,12.9518072 C81.5461847,11.2650602 81.6465863,11.0843373 82.2690763,9.93975904 L81.6666667,9.79919679 L80.9839357,10.8433735 L80.1606426,12.0281124 L68.2730924,28.5943775 L59.939759,28.5943775 L61.2650602,12.3293173 C61.3052209,11.5461847 61.3654618,11.0441767 61.4859438,9.85943775 L61.0240964,9.85943775 C60.4216867,11.686747 60.1606426,12.4497992 59.6586345,13.6947791 L53.9156627,28.5943775 L38.3333333,28.5943775 L38.0120482,24.0361446 L37.9116466,22.6706827 L28.4738956,22.6706827 L25.1405622,28.5943775 L0,28.5943775 L11.4457831,0.200803213 Z M37.188755,7.12851406 L36.9076305,7.08835341 C36.686747,7.5502008 36.626506,7.69076305 36.3654618,8.13253012 L36.0441767,8.73493976 L33.0321285,14.1566265 L32.3895582,15.3012048 L31.8473896,16.3052209 L37.6305221,16.3052209 L37.188755,7.12851406 Z" id="Shape"></path>
          </g>
      </g>
  </g>
</svg>
